<svg xmlns="http://www.w3.org/2000/svg" width="64" height="64" viewBox="0 0 64 64" fill="none">
  <rect width="64" height="64" rx="16" fill="#0284c7"/>
  <path d="M19.488 43V23.256H26.288C28.528 23.256 30.36 23.656 31.784 24.456C33.208 25.24 34.248 26.344 34.904 27.768C35.576 29.176 35.912 30.808 35.912 32.664C35.912 34.504 35.576 36.128 34.904 37.536C34.248 38.944 33.208 40.04 31.784 40.824C30.36 41.608 28.528 42 26.288 42H21.488V43H19.488ZM26.288 40.008C28.088 40.008 29.552 39.688 30.68 39.048C31.824 38.408 32.648 37.504 33.152 36.336C33.672 35.168 33.932 33.96 33.932 32.712C33.932 31.544 33.672 30.392 33.152 29.256C32.648 28.104 31.824 27.176 30.68 26.472C29.552 25.768 28.088 25.416 26.288 25.416H21.488V40.008H26.288Z" fill="white"/>
  <path d="M37.2969 43V23.256H39.3209L46.9449 38.832H46.1209L53.4649 23.256H55.4649L55.5129 43H53.4889L53.5129 26.664H53.8489L47.3529 40.008H45.5929L38.9689 26.664H39.3289V43H37.2969Z" fill="white"/>
</svg> 